<svg width="860" height="480" viewBox="0 0 860 480" fill="none" xmlns="http://www.w3.org/2000/svg">
  <rect width="860" height="480" rx="0" fill="#0F172A"/>

  <!-- Top nav -->
  <rect x="0" y="0" width="860" height="54" fill="#1E293B"/>
  <rect x="22" y="18" width="120" height="18" rx="9" fill="#8B5CF6"/>
  <rect x="620" y="18" width="60" height="18" rx="9" fill="#334155"/>
  <rect x="694" y="18" width="60" height="18" rx="9" fill="#334155"/>
  <rect x="768" y="18" width="70" height="18" rx="9" fill="#8B5CF6"/>

  <!-- Hero banner -->
  <rect x="0" y="54" width="860" height="140" fill="#1a1030"/>
  <rect x="60" y="82" width="340" height="28" rx="14" fill="#7C3AED" fill-opacity="0.7"/>
  <rect x="60" y="120" width="260" height="14" rx="7" fill="#475569"/>
  <rect x="60" y="142" width="290" height="14" rx="7" fill="#475569"/>
  <rect x="60" y="164" width="130" height="30" rx="15" fill="#8B5CF6"/>

  <!-- Article cards row -->
  <rect x="22" y="214" width="254" height="240" rx="16" fill="#1E293B"/>
  <rect x="294" y="214" width="254" height="240" rx="16" fill="#1E293B"/>
  <rect x="566" y="214" width="272" height="240" rx="16" fill="#1E293B"/>

  <!-- Card 1 -->
  <rect x="22" y="214" width="254" height="108" rx="16" fill="#2d1b69"/>
  <rect x="38" y="336" width="140" height="12" rx="6" fill="#cbd5e1"/>
  <rect x="38" y="356" width="200" height="10" rx="5" fill="#475569"/>
  <rect x="38" y="374" width="180" height="10" rx="5" fill="#475569"/>
  <rect x="38" y="400" width="70" height="24" rx="12" fill="#8B5CF6" fill-opacity="0.3"/>
  <text x="54" y="417" fill="#a78bfa" font-size="11" font-family="system-ui">Interview Prep</text>

  <!-- Card 2 -->
  <rect x="294" y="214" width="254" height="108" rx="16" fill="#0c2a4a"/>
  <rect x="310" y="336" width="160" height="12" rx="6" fill="#cbd5e1"/>
  <rect x="310" y="356" width="210" height="10" rx="5" fill="#475569"/>
  <rect x="310" y="374" width="190" height="10" rx="5" fill="#475569"/>
  <rect x="310" y="400" width="60" height="24" rx="12" fill="#3b82f6" fill-opacity="0.25"/>
  <text x="324" y="417" fill="#93c5fd" font-size="11" font-family="system-ui">Tech News</text>

  <!-- Card 3 -->
  <rect x="566" y="214" width="272" height="108" rx="16" fill="#0d2b1e"/>
  <rect x="582" y="336" width="150" height="12" rx="6" fill="#cbd5e1"/>
  <rect x="582" y="356" width="220" height="10" rx="5" fill="#475569"/>
  <rect x="582" y="374" width="200" height="10" rx="5" fill="#475569"/>
  <rect x="582" y="400" width="50" height="24" rx="12" fill="#10b981" fill-opacity="0.2"/>
  <text x="598" y="417" fill="#6ee7b7" font-size="11" font-family="system-ui">Tutorial</text>
</svg>
