<svg width="480" height="560" viewBox="0 0 480 560" fill="none" xmlns="http://www.w3.org/2000/svg">
  <defs>
    <radialGradient id="glow2" cx="62%" cy="30%" r="55%">
      <stop offset="0%" stop-color="#8B5CF6" stop-opacity="0.32"/>
      <stop offset="100%" stop-color="#030712" stop-opacity="0"/>
    </radialGradient>
    <linearGradient id="body2" x1="0%" y1="0%" x2="100%" y2="100%">
      <stop offset="0%" stop-color="#7C3AED"/>
      <stop offset="100%" stop-color="#4F46E5"/>
    </linearGradient>
  </defs>

  <!-- Background -->
  <rect width="480" height="560" fill="#0D0B1F"/>
  <rect width="480" height="560" fill="url(#glow2)"/>

  <!-- Horizontal lines (subtle) -->
  <line x1="0" y1="100" x2="480" y2="100" stroke="#1e1b4b" stroke-width="1"/>
  <line x1="0" y1="200" x2="480" y2="200" stroke="#1e1b4b" stroke-width="1"/>
  <line x1="0" y1="300" x2="480" y2="300" stroke="#1e1b4b" stroke-width="1"/>
  <line x1="0" y1="400" x2="480" y2="400" stroke="#1e1b4b" stroke-width="1"/>
  <line x1="0" y1="500" x2="480" y2="500" stroke="#1e1b4b" stroke-width="1"/>

  <!-- Vertical lines -->
  <line x1="96"  y1="0" x2="96"  y2="560" stroke="#1e1b4b" stroke-width="1"/>
  <line x1="192" y1="0" x2="192" y2="560" stroke="#1e1b4b" stroke-width="1"/>
  <line x1="288" y1="0" x2="288" y2="560" stroke="#1e1b4b" stroke-width="1"/>
  <line x1="384" y1="0" x2="384" y2="560" stroke="#1e1b4b" stroke-width="1"/>

  <!-- Large "GP" watermark -->
  <text x="240" y="380" text-anchor="middle" fill="#6366f1" fill-opacity="0.07" font-size="260" font-family="system-ui, sans-serif" font-weight="900">GP</text>

  <!-- Body -->
  <path d="M50 560 Q90 460 152 432 Q200 414 240 410 Q280 414 328 432 Q390 460 430 560Z" fill="url(#body2)" opacity="0.8"/>

  <!-- Neck  -->
  <rect x="220" y="286" width="40" height="48" rx="16" fill="#2e1065"/>

  <!-- Head -->
  <ellipse cx="240" cy="218" rx="86" ry="94" fill="url(#body2)"/>
  <ellipse cx="240" cy="222" rx="72" ry="80" fill="#13102b"/>

  <!-- Hair / top -->
  <path d="M156 210 Q162 128 240 124 Q318 128 324 210 Q298 192 240 194 Q182 192 156 210Z" fill="url(#body2)"/>

  <!-- Eyes -->
  <ellipse cx="218" cy="208" rx="9" ry="10" fill="#0a0820"/>
  <ellipse cx="262" cy="208" rx="9" ry="10" fill="#0a0820"/>
  <circle cx="221" cy="205" r="3.5" fill="#a78bfa"/>
  <circle cx="265" cy="205" r="3.5" fill="#a78bfa"/>

  <!-- Smile -->
  <path d="M222 234 Q240 251 258 234" stroke="#a78bfa" stroke-width="3.5" fill="none" stroke-linecap="round"/>

  <!-- Ears -->
  <ellipse cx="154" cy="220" rx="12" ry="16" fill="url(#body2)"/>
  <ellipse cx="326" cy="220" rx="12" ry="16" fill="url(#body2)"/>

  <!-- Achievement card top-right -->
  <rect x="300" y="58" width="162" height="82" rx="14" fill="#0f0c25" stroke="#8b5cf6" stroke-width="1.5" stroke-opacity="0.5"/>
  <text x="316" y="80" fill="#a78bfa" font-size="10" font-family="system-ui">🏆 Achievements</text>
  <text x="316" y="98" fill="#f8fafc" font-size="11" font-family="system-ui" font-weight="600">Gold — TNSkills</text>
  <text x="316" y="114" fill="#94a3b8" font-size="10" font-family="system-ui">Bronze — IndiaSkills</text>
  <text x="316" y="130" fill="#6366f1" font-size="10" font-family="system-ui">LeetCode 1603 ↑</text>

  <!-- Small stars -->
  <text x="22" y="80" fill="#8b5cf6" font-size="20" opacity="0.5">✦</text>
  <text x="440" y="120" fill="#6366f1" font-size="13" opacity="0.4">✦</text>
  <text x="30" y="510" fill="#6366f1" font-size="9" opacity="0.3">✦</text>
</svg>
