<svg width="860" height="520" viewBox="0 0 860 520" fill="none" xmlns="http://www.w3.org/2000/svg">
  <rect width="860" height="520" rx="22" fill="#0F172A"/>
  <rect x="26" y="26" width="808" height="62" rx="12" fill="#1E293B"/>
  <rect x="52" y="49" width="172" height="16" rx="8" fill="#6366F1"/>
  <rect x="736" y="49" width="72" height="16" rx="8" fill="#334155"/>

  <rect x="26" y="108" width="248" height="136" rx="14" fill="#1E293B"/>
  <rect x="296" y="108" width="248" height="136" rx="14" fill="#1E293B"/>
  <rect x="566" y="108" width="268" height="136" rx="14" fill="#1E293B"/>

  <rect x="52" y="136" width="86" height="10" rx="5" fill="#64748B"/>
  <rect x="52" y="154" width="122" height="18" rx="9" fill="#8B5CF6"/>
  <rect x="322" y="136" width="86" height="10" rx="5" fill="#64748B"/>
  <rect x="322" y="154" width="110" height="18" rx="9" fill="#6366F1"/>

  <rect x="592" y="136" width="98" height="10" rx="5" fill="#64748B"/>
  <rect x="592" y="158" width="216" height="64" rx="12" fill="#0B1222"/>

  <rect x="26" y="264" width="518" height="230" rx="14" fill="#1E293B"/>
  <rect x="566" y="264" width="268" height="230" rx="14" fill="#1E293B"/>

  <path d="M54 438C98 390 131 398 170 364C219 322 263 338 306 302C343 271 380 292 428 262C458 243 494 234 520 222" stroke="#6366F1" stroke-width="6" stroke-linecap="round"/>
  <path d="M54 454C104 422 135 430 179 404C228 374 267 380 312 353C351 329 389 349 434 322C462 306 496 296 520 283" stroke="#8B5CF6" stroke-opacity="0.7" stroke-width="4" stroke-linecap="round"/>

  <rect x="592" y="292" width="90" height="10" rx="5" fill="#64748B"/>
  <rect x="592" y="312" width="216" height="12" rx="6" fill="#0B1222"/>
  <rect x="592" y="334" width="184" height="12" rx="6" fill="#0B1222"/>
  <rect x="592" y="356" width="198" height="12" rx="6" fill="#0B1222"/>
  <rect x="592" y="378" width="160" height="12" rx="6" fill="#0B1222"/>

  <circle cx="810" cy="49" r="6" fill="#22C55E"/>
</svg>
